<svg width="80" height="80" viewBox="0 0 80 80" fill="none" xmlns="http://www.w3.org/2000/svg">
<mask id="mask0_480_85250" style="mask-type:luminance" maskUnits="userSpaceOnUse" x="8" y="12" width="80" height="80">
<path d="M72 12H8.29816V68H72V12Z" fill="white"/>
</mask>
<g mask="url(#mask0_480_85250)">
<path d="M69.9331 48.729C49.745 47.644 34.5515 57.92 14.0314 56.093C13.8145 47.805 13.4418 39.16 12.9539 30.263C31.9289 28.59 47.3799 18.895 69.6214 24.642C69.5333 32.244 69.662 40.315 69.9331 48.729Z" fill="#ABA3B5"/>
<path d="M68.205 47.238C56.122 46.825 45.7942 50.402 34.9445 52.796C34.3617 44.55 33.7383 36.22 33.1284 27.904C43.856 25.244 54.6514 22.724 67.7781 25.51C67.7781 32.433 67.9339 39.706 68.205 47.231V47.238Z" fill="#827591"/>
<path fill-rule="evenodd" clip-rule="evenodd" d="M51.4934 34.099C51.7645 38.446 54.3532 41.568 57.3282 41.246C60.3032 40.91 62.6887 37.529 62.5599 33.518C62.4379 29.514 59.6933 26.021 56.5692 26.021C53.4451 26.021 51.2156 29.759 51.4934 34.099Z" fill="#59476B"/>
<path fill-rule="evenodd" clip-rule="evenodd" d="M67.7848 47.224C66.2262 43.962 61.9636 41.428 57.3689 41.918C52.7607 42.387 49.2164 45.775 48.1796 49.618C54.4278 48.176 60.8251 47.042 67.7916 47.231L67.7848 47.224Z" fill="#59476B"/>
<path d="M17.7789 33.637L14.9462 33.777L14.9733 34.358L17.806 34.218L17.7789 33.637Z" fill="#59476B"/>
<path d="M17.8196 34.54L14.9869 34.68L15.014 35.261L17.8467 35.121L17.8196 34.54Z" fill="#59476B"/>
<path d="M17.9619 36.99C16.5659 37.06 15.3799 35.94 15.3122 34.484C15.2444 33.035 16.3219 31.803 17.7179 31.733C18.2533 31.705 18.7751 31.852 19.2292 32.16L18.7819 32.867C18.4769 32.657 18.1245 32.559 17.7586 32.58C16.8166 32.629 16.0847 33.462 16.1254 34.442C16.1728 35.422 16.9725 36.185 17.9212 36.136C18.2126 36.122 18.504 36.031 18.748 35.87L19.1817 36.591C18.8158 36.829 18.3956 36.969 17.9551 36.99H17.9619Z" fill="#59476B"/>
<path d="M68.9572 42.821C50.443 48.757 37.2283 64.927 15.3189 64.332C12.9335 56.534 10.4871 48.631 8 40.644C29.3875 40.329 41.6874 22.318 61.1029 18.104C63.6849 26.273 66.3075 34.519 68.9572 42.821Z" fill="#F7CED7"/>
<path fill-rule="evenodd" clip-rule="evenodd" d="M53.723 29.675C49.9822 31.425 47.9356 35.73 48.9725 38.901C50.0161 42.1 53.7433 42.954 57.4231 41.099C61.0962 39.223 63.4816 35.569 62.499 32.496C61.5163 29.416 57.457 27.918 53.723 29.675Z" fill="#FF808B"/>
<path d="M49.2096 50.913C39.241 56.835 29.3265 62.855 16.3693 63.023C14.2143 56.037 12.0254 48.974 9.79584 41.848C23.6002 41.078 31.7255 33.847 41.7416 28.016C44.2287 35.639 46.7158 43.276 49.2096 50.913Z" fill="#FF808B"/>
<path fill-rule="evenodd" clip-rule="evenodd" d="M30.8174 45.04C32.1253 49.093 35.4392 51.347 38.1093 49.891C40.7793 48.435 41.8162 43.815 40.4744 39.713C39.1325 35.597 35.9204 33.539 33.2774 35.051C30.6412 36.57 29.5095 40.994 30.8174 45.047" fill="#E40046"/>
<path fill-rule="evenodd" clip-rule="evenodd" d="M48.8708 51.13C46.6074 48.561 42.4329 48.288 38.3261 50.542C34.2262 52.81 31.2918 56.674 30.9733 60.286C37.33 57.99 43.097 54.553 48.8641 51.123L48.8708 51.13Z" fill="#E40046"/>
<path d="M57.6129 25.832C57.5451 25.622 57.4773 25.419 57.4096 25.209C57.5587 25.055 57.6535 24.894 57.6942 24.733C57.7349 24.565 57.7281 24.376 57.6535 24.166C57.6332 24.096 57.6061 24.033 57.579 23.97C57.3486 24.054 57.1182 24.131 56.8945 24.215C56.82 23.991 56.7522 23.767 56.6777 23.543C56.8471 23.48 57.0165 23.417 57.1927 23.361C57.1588 23.305 57.1249 23.242 57.0911 23.186C57.0572 23.123 57.0301 23.06 57.003 22.99C56.9149 22.731 56.9149 22.465 56.9962 22.199C57.0775 21.933 57.2266 21.688 57.457 21.478C57.6874 21.261 57.9856 21.093 58.3583 20.981C58.8327 20.834 59.2596 20.82 59.6459 20.918C60.0322 21.016 60.3371 21.233 60.5608 21.562C60.2761 21.695 59.9983 21.828 59.7205 21.968C59.5849 21.793 59.4223 21.681 59.2393 21.639C59.0563 21.597 58.8395 21.611 58.6023 21.688C58.2905 21.786 58.0737 21.933 57.9585 22.136C57.8433 22.339 57.823 22.542 57.8907 22.752C57.911 22.822 57.9382 22.885 57.9653 22.941C57.9924 22.997 58.0195 23.046 58.0398 23.088C58.6429 22.885 59.2529 22.696 59.8628 22.514C59.9305 22.738 60.0051 22.955 60.0728 23.179C59.5239 23.34 58.9818 23.508 58.4464 23.69C58.4667 23.746 58.4871 23.802 58.5074 23.858C58.5548 23.998 58.5752 24.145 58.5616 24.278C58.5548 24.411 58.5074 24.558 58.4193 24.712C59.3613 24.39 60.3236 24.089 61.2927 23.823C61.3333 24.089 61.374 24.348 61.4146 24.607C60.1203 24.971 58.853 25.391 57.6061 25.846L57.6129 25.832Z" fill="#E40046"/>
<path d="M21.2012 24.663C21.1538 24.663 21.1063 24.663 21.0589 24.642C20.9979 24.621 20.9369 24.586 20.8827 24.544C20.8285 24.502 20.7878 24.446 20.7539 24.39C20.7201 24.327 20.6997 24.257 20.693 24.18C20.693 24.173 20.693 24.159 20.693 24.152L20.5032 18.167C20.4964 17.88 20.7133 17.635 20.9911 17.628C21.269 17.628 21.5062 17.845 21.5129 18.139L21.6553 22.675C23.485 20.4 27.7137 15.913 33.7315 14.198C40.0339 12.406 45.5231 13.603 49.596 14.856C49.867 14.94 50.0161 15.234 49.9416 15.507C49.8603 15.787 49.5756 15.948 49.3113 15.864C45.3605 14.653 40.0542 13.491 34.0026 15.213C28.039 16.914 23.8984 21.478 22.2584 23.571L26.7379 23.389C27.036 23.382 27.2529 23.606 27.2664 23.893C27.28 24.18 27.0564 24.425 26.7785 24.439L21.2215 24.663C21.2215 24.663 21.208 24.663 21.1944 24.663H21.2012Z" fill="#827591"/>
<path d="M40.3388 67.643C36.2728 67.643 32.7488 66.614 29.9161 65.599C29.6518 65.501 29.5095 65.207 29.6044 64.934C29.6993 64.661 29.9839 64.514 30.255 64.612C34.1449 66.012 39.3969 67.433 45.5163 66.005C51.5544 64.598 55.8916 60.237 57.6264 58.221L53.147 58.186C52.8691 58.186 52.6387 57.948 52.6455 57.654C52.6523 57.36 52.8827 57.164 53.1605 57.136L58.7175 57.185C58.7582 57.213 58.8327 57.192 58.8869 57.213C58.8869 57.213 58.9072 57.22 58.914 57.227C58.9615 57.248 59.0021 57.276 59.036 57.311C59.0902 57.36 59.1309 57.416 59.158 57.479C59.1851 57.542 59.1986 57.612 59.2054 57.682C59.2054 57.689 59.2054 57.703 59.2054 57.71L59.1241 63.695C59.1241 63.982 58.8869 64.199 58.6091 64.213C58.3312 64.213 58.1008 63.968 58.1076 63.681L58.1686 59.138C56.2372 61.322 51.8119 65.599 45.7264 67.02C43.8424 67.461 42.033 67.643 40.3253 67.643H40.3388Z" fill="#827591"/>
</g>
</svg>
